# xmcd
#
# Track frame offsets: 
#        150
#        10123
#        33052
#        42892
#        50503
#        67355
#        79328
#        93478
#        104022
#        113466
#        128262
#        148781
#        159164
#        169910
#        181605
#        194967
#        205982
#        216439
#
# Disc length: 3047 seconds
#
# Revision: 5
# Processed by: cddbd v1.5.2PL0 Copyright (c) Steve Scherf et al.
# Submitted via: ExactAudioCopyFreeDBPlugin 1.0
#
DISCID=fd0be512
DTITLE=Various Artist - Heart of Australia
DYEAR=1978
DGENRE=Country
TTITLE0=On The Road To Gundagai
TTITLE1=Waltzing Matilda
TTITLE2=South Australia
TTITLE3=Where The Dog Sits On The Tuckerbox
TTITLE4=Click Go The Shears
TTITLE5=The Overlander
TTITLE6=The Ryebuck Shearer
TTITLE7=Lachlan Tigers
TTITLE8=Five Miles From Gundagai
TTITLE9=Botany Bay
TTITLE10=The Wild Colonial Boy
TTITLE11=The Drovers Dream
TTITLE12=The Old Bullock Dray
TTITLE13=With My Swag All On My Shoulder
TTITLE14=Waltzing Matilda (Version 2)
TTITLE15=Flash Jack From Gundagai
TTITLE16=The Dying Stockman
TTITLE17=Travelling Down The Castlereagh
EXTD=
EXTT0=
EXTT1=
EXTT2=
EXTT3=
EXTT4=
EXTT5=
EXTT6=
EXTT7=
EXTT8=
EXTT9=
EXTT10=
EXTT11=
EXTT12=
EXTT13=
EXTT14=
EXTT15=
EXTT16=
EXTT17=
PLAYORDER=
